TITLE ""
FILE "1Q_t_1810-1819.mp3" MP3
  TRACK 01 AUDIO
    TITLE "1Q_t_1810-1819_01"
    INDEX 01 00:00:00
  TRACK 02 AUDIO
    TITLE "1Q_t_1810-1819_02"
    INDEX 01 00:01:10
  TRACK 03 AUDIO
    TITLE "1Q_t_1810-1819_03"
    INDEX 01 00:01:22
  TRACK 04 AUDIO
    TITLE "1Q_t_1810-1819_04"
    INDEX 01 00:02:33
  TRACK 05 AUDIO
    TITLE "1Q_t_1810-1819_05"
    INDEX 01 00:02:43
  TRACK 06 AUDIO
    TITLE "1Q_t_1810-1819_06"
    INDEX 01 00:09:13
  TRACK 07 AUDIO
    TITLE "1Q_t_1810-1819_07"
    INDEX 01 00:09:60
  TRACK 08 AUDIO
    TITLE "1Q_t_1810-1819_08"
    INDEX 01 00:10:75
  TRACK 09 AUDIO
    TITLE "1Q_t_1810-1819_09"
    INDEX 01 00:11:12
  TRACK 10 AUDIO
    TITLE "1Q_t_1810-1819_10"
    INDEX 01 00:14:07
  TRACK 11 AUDIO
    TITLE "1Q_t_1810-1819_11"
    INDEX 01 00:14:14
  TRACK 12 AUDIO
    TITLE "1Q_t_1810-1819_12"
    INDEX 01 00:20:25
  TRACK 13 AUDIO
    TITLE "1Q_t_1810-1819_13"
    INDEX 01 00:20:72
  TRACK 14 AUDIO
    TITLE "1Q_t_1810-1819_14"
    INDEX 01 00:21:67
  TRACK 15 AUDIO
    TITLE "1Q_t_1810-1819_15"
    INDEX 01 00:22:04
  TRACK 16 AUDIO
    TITLE "1Q_t_1810-1819_16"
    INDEX 01 00:25:34
  TRACK 17 AUDIO
    TITLE "1Q_t_1810-1819_17"
    INDEX 01 00:25:42
  TRACK 18 AUDIO
    TITLE "1Q_t_1810-1819_18"
    INDEX 01 00:31:32
  TRACK 19 AUDIO
    TITLE "1Q_t_1810-1819_19"
    INDEX 01 00:32:04
  TRACK 20 AUDIO
    TITLE "1Q_t_1810-1819_20"
    INDEX 01 00:33:22
  TRACK 21 AUDIO
    TITLE "1Q_t_1810-1819_21"
    INDEX 01 00:33:29
  TRACK 22 AUDIO
    TITLE "1Q_t_1810-1819_22"
    INDEX 01 00:35:07
  TRACK 23 AUDIO
    TITLE "1Q_t_1810-1819_23"
    INDEX 01 00:35:16
  TRACK 24 AUDIO
    TITLE "1Q_t_1810-1819_24"
    INDEX 01 00:39:51
  TRACK 25 AUDIO
    TITLE "1Q_t_1810-1819_25"
    INDEX 01 00:40:25
  TRACK 26 AUDIO
    TITLE "1Q_t_1810-1819_26"
    INDEX 01 00:41:37
  TRACK 27 AUDIO
    TITLE "1Q_t_1810-1819_27"
    INDEX 01 00:41:46
  TRACK 28 AUDIO
    TITLE "1Q_t_1810-1819_28"
    INDEX 01 00:44:31
  TRACK 29 AUDIO
    TITLE "1Q_t_1810-1819_29"
    INDEX 01 00:44:41
  TRACK 30 AUDIO
    TITLE "1Q_t_1810-1819_30"
    INDEX 01 00:49:32
  TRACK 31 AUDIO
    TITLE "1Q_t_1810-1819_31"
    INDEX 01 00:50:06
  TRACK 32 AUDIO
    TITLE "1Q_t_1810-1819_32"
    INDEX 01 00:51:27
  TRACK 33 AUDIO
    TITLE "1Q_t_1810-1819_33"
    INDEX 01 00:51:39
  TRACK 34 AUDIO
    TITLE "1Q_t_1810-1819_34"
    INDEX 01 00:54:04
  TRACK 35 AUDIO
    TITLE "1Q_t_1810-1819_35"
    INDEX 01 00:54:12
  TRACK 36 AUDIO
    TITLE "1Q_t_1810-1819_36"
    INDEX 01 00:59:70
  TRACK 37 AUDIO
    TITLE "1Q_t_1810-1819_37"
    INDEX 01 01:00:42
  TRACK 38 AUDIO
    TITLE "1Q_t_1810-1819_38"
    INDEX 01 01:01:39
  TRACK 39 AUDIO
    TITLE "1Q_t_1810-1819_39"
    INDEX 01 01:01:53
  TRACK 40 AUDIO
    TITLE "1Q_t_1810-1819_40"
    INDEX 01 01:02:72
  TRACK 41 AUDIO
    TITLE "1Q_t_1810-1819_41"
    INDEX 01 01:03:05
  TRACK 42 AUDIO
    TITLE "1Q_t_1810-1819_42"
    INDEX 01 01:07:16
  TRACK 43 AUDIO
    TITLE "1Q_t_1810-1819_43"
    INDEX 01 01:07:64
  TRACK 44 AUDIO
    TITLE "1Q_t_1810-1819_44"
    INDEX 01 01:08:61
  TRACK 45 AUDIO
    TITLE "1Q_t_1810-1819_45"
    INDEX 01 01:08:71
  TRACK 46 AUDIO
    TITLE "1Q_t_1810-1819_46"
    INDEX 01 01:10:32
  TRACK 47 AUDIO
    TITLE "1Q_t_1810-1819_47"
    INDEX 01 01:10:40
  TRACK 48 AUDIO
    TITLE "1Q_t_1810-1819_48"
    INDEX 01 01:15:47
  TRACK 49 AUDIO
    TITLE "1Q_t_1810-1819_49"
    INDEX 01 01:16:19
  TRACK 50 AUDIO
    TITLE "1Q_t_1810-1819_50"
    INDEX 01 01:17:40
  TRACK 51 AUDIO
    TITLE "1Q_t_1810-1819_51"
    INDEX 01 01:17:48
  TRACK 52 AUDIO
    TITLE "1Q_t_1810-1819_52"
    INDEX 01 01:20:50
  TRACK 53 AUDIO
    TITLE "1Q_t_1810-1819_53"
    INDEX 01 01:20:58
  TRACK 54 AUDIO
    TITLE "1Q_t_1810-1819_54"
    INDEX 01 01:24:66
  TRACK 55 AUDIO
    TITLE "1Q_t_1810-1819_55"
    INDEX 01 01:25:38
  TRACK 56 AUDIO
    TITLE "1Q_t_1810-1819_56"
    INDEX 01 01:26:35
  TRACK 57 AUDIO
    TITLE "1Q_t_1810-1819_57"
    INDEX 01 01:26:47
  TRACK 58 AUDIO
    TITLE "1Q_t_1810-1819_58"
    INDEX 01 01:29:51
  TRACK 59 AUDIO
    TITLE "1Q_t_1810-1819_59"
    INDEX 01 01:29:61
  TRACK 60 AUDIO
    TITLE "1Q_t_1810-1819_60"
    INDEX 01 01:34:19
